<svg xmlns="http://www.w3.org/2000/svg" xmlns:xlink="http://www.w3.org/1999/xlink" version="1.1" id="Calque_1" x="0px" y="0px" viewBox="85 79.83 316 330.45">
<style type="text/css">
	.st0{fill:#E30613;}
	.st1{fill:#4CBBB6;}
</style>
<g>
	<path class="st0" d="M200.31,251.15c-1.81,0-3.61-0.6-5.11-1.79L88.08,163.79c-3.53-2.82-4.11-7.97-1.29-11.5   c2.82-3.53,7.97-4.11,11.5-1.29l102,81.47L387.61,81.64c3.52-2.83,8.67-2.28,11.5,1.24s2.28,8.67-1.24,11.5L205.44,249.34   C203.95,250.54,202.13,251.15,200.31,251.15z"/>
	<path class="st1" d="M392.81,410.28c-4.52,0-8.18-3.66-8.18-8.18V179.06L205.48,324.77c-2.99,2.43-7.26,2.45-10.27,0.05   L88.08,239.25c-3.53-2.82-4.11-7.97-1.29-11.5c2.82-3.53,7.97-4.1,11.5-1.29l101.98,81.45l187.38-152.4   c2.45-1.99,5.82-2.4,8.68-1.04c2.85,1.36,4.67,4.23,4.67,7.39V402.1C400.99,406.61,397.33,410.28,392.81,410.28z"/>
</g>
</svg>